<svg width="545" height="431" viewBox="0 0 545 431" fill="none" xmlns="http://www.w3.org/2000/svg">
<path fill-rule="evenodd" clip-rule="evenodd" d="M305.254 47.2337C348.224 50.3198 391.642 2.75729 429.572 23.183C466.861 43.2628 468.729 97.0819 475.466 138.894C480.943 172.893 468.471 205.312 464.424 239.512C460.247 274.814 477.638 319.303 451.292 343.17C424.206 367.708 377.836 334.773 344.006 348.604C303.517 365.156 286.26 421.135 243.106 428.281C195.694 436.133 143.482 419.915 107.799 387.722C70.7947 354.338 48.9568 303.265 49.2938 253.428C49.6154 205.857 88.9589 170.137 109.56 127.256C129.653 85.432 125.955 22.0242 168.904 4.46179C213.905 -13.94 256.76 43.7509 305.254 47.2337Z" fill="#3D50FF" fill-opacity="0.04"/>
<path d="M327.235 238.657C327.235 238.657 330.755 209.762 336.649 205.669C342.543 201.576 363.17 201.413 365.954 198.957C368.655 196.501 378.805 170.307 381.997 173.418C385.19 176.528 380.033 208.207 380.033 208.207C380.033 208.207 354.903 227.934 354.002 236.857C353.02 245.697 327.235 238.657 327.235 238.657Z" fill="#FBD7AD"/>
<mask id="mask0_270_3326" style="mask-type:luminance" maskUnits="userSpaceOnUse" x="327" y="173" width="57" height="69">
<path d="M327.235 238.656C327.235 238.656 330.755 209.761 336.649 205.668C342.543 201.575 363.171 201.411 365.954 198.956C368.655 196.5 378.805 170.306 381.997 173.416C385.19 176.527 380.033 208.205 380.033 208.205C380.033 208.205 354.903 227.933 354.003 236.855C353.02 245.696 327.235 238.656 327.235 238.656Z" fill="white"/>
</mask>
<g mask="url(#mask0_270_3326)">
<path d="M365.135 205.586C365.135 205.586 372.911 202.885 375.694 195.763C378.232 189.297 381.915 173.417 381.915 173.417" stroke="#F27932" stroke-width="0.88094" stroke-linecap="round" stroke-linejoin="round"/>
</g>
<mask id="mask1_270_3326" style="mask-type:luminance" maskUnits="userSpaceOnUse" x="327" y="173" width="57" height="69">
<path d="M327.235 238.656C327.235 238.656 330.755 209.761 336.649 205.668C342.543 201.575 363.171 201.411 365.954 198.956C368.655 196.5 378.805 170.306 381.997 173.416C385.19 176.527 380.033 208.205 380.033 208.205C380.033 208.205 354.903 227.933 354.003 236.855C353.02 245.696 327.235 238.656 327.235 238.656Z" fill="white"/>
</mask>
<g mask="url(#mask1_270_3326)">
<path d="M369.146 209.597C369.146 209.597 376.922 206.896 379.705 199.775C382.243 193.308 385.927 177.428 385.927 177.428" stroke="#F27932" stroke-width="0.88094" stroke-linecap="round" stroke-linejoin="round"/>
</g>
<path d="M321.587 272.372L302.923 202.876C301.941 197.391 298.503 192.807 293.51 190.27L257.82 184.458L275.993 336.547L313.892 344.324L360.305 309.044L321.587 272.372Z" fill="#B9C6E4"/>
<path d="M212.554 184.049C195.855 179.384 175.064 171.689 173.018 151.88C172.117 142.957 175.228 134.035 181.531 127.65C187.015 122.084 194.628 118.646 198.72 111.934C201.176 107.841 202.158 102.93 203.714 98.3455C210.18 80.1734 235.638 75.835 252.337 77.8814C265.597 79.6004 277.466 88.2772 285.652 98.1818C306.444 123.557 314.138 189.943 239.485 187.569C230.563 187.324 221.395 186.505 212.554 184.049Z" fill="#F55E3D"/>
<path d="M215.91 130.188C221.722 136 213.7 145.413 209.935 150.161C204.614 156.955 201.176 164.404 203.959 173.326C208.953 188.797 225.897 190.516 239.649 187.16C244.478 186.014 249.144 183.313 251.764 178.974C255.202 172.999 253.892 165.468 251.764 158.756C249.799 152.453 247.343 146.15 242.841 141.157C239.731 137.555 235.556 134.936 230.808 133.872C228.598 133.38 226.634 134.035 224.342 133.708C221.64 133.462 218.53 131.498 216.074 130.515" fill="#CC3D2E"/>
<path d="M261.013 89.0957C254.956 86.7218 247.016 89.0957 244.56 95.5623C241.45 103.584 249.226 112.179 244.724 119.956C242.596 123.557 238.503 125.767 234.328 125.522C233.591 125.522 233.428 124.294 234.328 124.294C238.257 124.54 242.023 122.411 243.823 118.973C245.952 114.88 244.478 110.215 243.414 106.122C242.514 102.275 241.941 98.1817 243.66 94.4982C245.051 91.6332 247.507 89.4231 250.372 88.2771C253.81 86.8855 257.821 86.8037 261.259 88.1134C262.077 88.1952 261.75 89.505 261.013 89.0957Z" fill="#F55E3D"/>
<path d="M193.727 66.9128C179.648 63.4748 165.241 71.9879 161.803 86.2309C160.411 91.9609 160.902 97.8545 163.276 103.175C165.405 108.005 169.743 112.589 175.064 112.425C181.039 112.261 185.132 106.613 187.67 101.293C189.552 97.4452 191.271 93.1068 194.464 90.16C198.147 86.722 203.222 87.295 206.988 84.1845C215.419 77.2267 199.866 68.3862 193.727 66.9128Z" fill="#F55E3D"/>
<path d="M218.775 82.6293C218.366 79.2731 215.419 76.8993 212.227 77.3086C212.063 77.3086 211.818 77.3086 211.736 77.4723C209.771 78.209 208.134 79.355 206.906 80.9103C204.778 83.1204 202.977 85.4942 201.094 87.9499C199.948 89.1778 199.212 90.8149 198.966 92.3702C198.802 95.2352 201.176 97.609 204.041 97.609C204.287 97.609 204.696 97.609 204.942 97.609" fill="white"/>
<path d="M218.775 82.6293C218.366 79.2731 215.419 76.8993 212.227 77.3086C212.063 77.3086 211.818 77.3086 211.736 77.4723C209.771 78.209 208.134 79.355 206.906 80.9103C204.778 83.1204 202.977 85.4942 201.094 87.9499C199.948 89.1778 199.212 90.8149 198.966 92.3702C198.802 95.2352 201.176 97.609 204.041 97.609C204.287 97.609 204.696 97.609 204.942 97.609" stroke="#F7C689" stroke-width="1.23824" stroke-miterlimit="10"/>
<path d="M201.667 86.6406C199.211 87.3773 196.592 88.0322 194.463 89.9967C191.271 92.9436 189.47 97.282 187.669 101.129C185.296 105.795 181.858 110.788 176.864 112.016C173.017 110.297 170.398 106.532 170.07 102.357C169.825 98.1824 171.462 93.9258 174.409 90.979C177.519 88.0322 181.366 86.1495 185.459 85.4946C190.944 84.7579 196.346 85.6583 201.667 86.6406Z" fill="#CC3D2E"/>
<path d="M258.885 88.4406C265.352 89.8321 270.918 93.6794 274.356 99.0819C277.958 104.403 279.841 110.869 281.068 117.172C282.46 125.112 282.542 133.134 281.478 141.074C280.004 150.488 268.708 155.563 262.814 152.452L264.779 177.992L280.659 182.985L264.042 226.287L230.235 211.389L219.185 174.881L227.616 173.981L229.744 144.512C229.826 144.594 211.327 79.8457 258.885 88.4406Z" fill="#FBD7AD"/>
<path d="M233.264 124.376C231.054 122.248 228.435 120.692 225.733 119.546C222.868 118.4 219.676 118.646 217.056 120.447C214.355 122.657 213.455 126.504 214.846 129.697C216.32 132.889 219.43 135.017 222.868 135.263C226.306 135.508 229.826 134.526 232.527 132.316" fill="#FBD7AD"/>
<path d="M264.205 118.973C263.059 115.289 260.031 113.243 256.265 112.67C252.336 112.179 248.489 113.816 246.115 117.008C247.507 120.119 251.19 121.838 254.628 122.083C258.148 122.247 261.504 121.183 264.205 118.973Z" fill="white"/>
<path d="M263.633 118.319C263.633 118.483 263.469 118.483 263.469 118.565C262.978 119.547 258.885 121.675 256.184 119.711C254.301 118.319 253.073 113.981 253.564 112.507C255.693 111.852 258.148 112.917 260.031 113.981C260.85 114.472 264.124 116.928 263.633 118.319Z" fill="#B9C6E4"/>
<path d="M263.714 119.055C262.977 116.845 261.504 114.962 259.376 113.734C257.739 112.834 255.774 112.588 254.055 112.998C252.336 113.243 250.699 113.898 249.226 114.717C248.08 115.372 247.097 116.19 246.524 117.172C246.279 117.663 245.378 117.172 245.624 116.681C246.852 114.553 249.471 113.325 251.681 112.588C254.628 111.442 257.984 111.688 260.604 113.489C262.486 114.88 263.796 116.681 264.533 118.809C264.86 119.464 263.96 119.71 263.714 119.055Z" fill="#4B4065"/>
<path d="M246.115 108.251C247.507 106.286 249.471 104.894 251.845 104.403C254.219 103.912 256.675 104.403 258.803 105.795C254.301 106.695 250.617 107.432 246.115 108.251Z" fill="#F55E3D"/>
<path d="M258.885 106.285C259.131 106.122 259.376 105.876 259.294 105.63C259.294 105.467 259.131 105.385 259.049 105.221C256.921 103.83 254.219 103.338 251.764 103.83C249.308 104.321 247.18 105.794 245.706 107.922C245.543 108.168 245.543 108.413 245.87 108.659C246.034 108.823 246.116 108.823 246.279 108.823C248.489 108.413 250.618 107.922 252.582 107.595C254.465 107.267 256.675 106.694 258.885 106.285ZM251.682 105.057L252.091 104.894C253.81 104.484 255.693 104.73 257.412 105.548L252.582 106.531L247.589 107.513C248.489 106.285 249.963 105.467 251.682 105.057Z" fill="#F55E3D"/>
<path d="M223.769 134.444C224.26 130.27 226.879 127.896 229.58 129.124C232.282 130.352 235.065 134.608 236.047 139.274C237.029 143.94 236.211 148.524 234.082 150.652C231.954 152.78 228.844 152.289 226.306 149.67" stroke="white" stroke-width="1.23824" stroke-miterlimit="10"/>
<path d="M270.754 116.927L272.719 119.055C273.21 119.464 273.619 120.037 273.701 120.528C273.947 121.429 273.537 122.411 272.801 122.984C272.146 123.639 271.327 124.13 270.591 124.376" stroke="#4B4065" stroke-width="0.928662" stroke-linecap="round" stroke-linejoin="round"/>
<path d="M275.829 129.942L262.077 132.152C263.551 134.117 265.433 135.754 267.643 136.818C269.772 137.718 272.064 137.555 273.946 136.409C275.829 135.263 276.566 132.07 275.829 129.942Z" stroke="#F55E3D" stroke-width="1.23824" stroke-linecap="round" stroke-linejoin="round"/>
<path d="M275.011 99.4922C275.502 100.393 275.993 101.375 276.402 102.357L272.719 103.503C272.473 103.667 272.228 103.339 272.228 103.094C272.228 102.93 272.228 102.848 272.228 102.685C272.801 101.457 273.783 100.393 275.011 99.4922Z" fill="#F55E3D"/>
<path d="M272.8 103.829C274.192 103.42 275.42 103.093 276.484 102.683C276.648 102.683 276.729 102.52 276.893 102.438C276.893 102.274 276.893 102.192 276.893 102.029C276.484 101.128 275.993 100.146 275.502 99.1635C275.338 98.9998 275.338 98.918 275.092 98.918C274.929 98.918 274.847 98.918 274.683 99.0817C273.455 99.9821 272.309 101.21 271.572 102.52C271.327 103.011 271.409 103.502 271.982 103.747C272.309 103.993 272.555 103.993 272.8 103.829ZM275.583 101.947L272.473 102.847C273.128 101.865 273.864 100.964 274.683 100.228C275.092 100.883 275.338 101.374 275.583 101.947Z" fill="#F55E3D"/>
<path d="M278.612 107.432C279.349 110.051 280.086 112.67 280.577 115.372V115.617C278.858 115.863 276.975 115.372 275.502 114.471C275.584 111.77 276.73 109.314 278.612 107.432Z" fill="white"/>
<path d="M279.185 115.453C278.285 114.471 277.712 113.243 277.712 111.852C277.466 110.46 277.548 108.987 278.203 107.759C278.367 107.759 278.612 107.513 278.694 107.513C279.676 110.133 280.413 112.834 280.822 115.535C280.167 115.699 279.676 115.617 279.185 115.453Z" fill="#B9C6E4"/>
<path d="M278.694 107.678C276.975 109.151 275.993 111.525 275.993 113.899C275.993 114.144 275.747 114.308 275.501 114.308C275.256 114.308 275.092 114.063 275.092 113.899C274.928 111.279 276.074 108.824 278.039 107.105C278.203 106.941 278.53 106.941 278.694 107.105C278.858 107.187 278.858 107.514 278.694 107.678Z" fill="#4B4065"/>
<path opacity="0.3" d="M266.17 154.008L247.507 147.541C247.507 147.541 251.354 165.14 266.661 165.877" fill="#F27932"/>
<path d="M173.426 178.483C188.57 167.678 219.102 175.045 227.697 174.063C265.924 217.61 264.205 221.703 264.205 221.703C264.205 221.703 274.847 189.124 276.238 181.43C289.581 182.903 303.742 187.896 304.97 219.821C305.215 228.252 304.97 263.041 285.406 261.404L289.99 291.527C284.26 296.111 212.718 300.695 212.718 300.695L218.448 287.188L205.678 231.117L166.305 209.179C166.632 200.011 165.65 183.967 173.426 178.483Z" fill="#DDEEFF"/>
<path d="M202.813 290.954L228.516 350.709L179.566 352.51L154.6 280.804L166.878 193.708L206.251 206.396L202.813 290.954Z" fill="#DDEEFF"/>
<path d="M300.877 231.281C306.607 240.695 303.578 253.055 294.165 258.785C291.546 260.422 288.435 261.404 285.406 261.65C286.634 270.818 287.289 282.442 288.517 291.61" stroke="#4B4065" stroke-width="1.23824" stroke-miterlimit="10"/>
<path d="M205.515 231.281L207.397 203.777" stroke="#4B4065" stroke-width="1.23824" stroke-miterlimit="10"/>
<path d="M218.039 106.286C217.629 112.753 220.167 117.91 226.224 120.038C226.961 120.283 227.861 120.529 228.598 120.529C234.328 120.938 239.485 117.337 241.122 111.852C242.514 106.613 240.14 100.965 241.859 95.8902C243.332 91.9611 246.688 88.9324 250.781 87.9502C254.874 87.0497 259.212 87.5409 262.896 89.4236C257.084 85.3308 250.045 83.2025 242.923 83.3662C238.83 83.3662 234.737 84.5122 231.299 86.5586C222.213 92.2886 218.448 99.1645 218.039 106.286Z" fill="#F55E3D"/>
<path d="M342.788 99.2889C346.857 99.2889 350.155 95.9905 350.155 91.9218C350.155 87.853 346.857 84.5547 342.788 84.5547C338.719 84.5547 335.421 87.853 335.421 91.9218C335.421 95.9905 338.719 99.2889 342.788 99.2889Z" fill="#F55E3D"/>
<path d="M538.589 165.559C541.572 165.559 543.991 163.141 543.991 160.157C543.991 157.173 541.572 154.754 538.589 154.754C535.605 154.754 533.186 157.173 533.186 160.157C533.186 163.141 535.605 165.559 538.589 165.559Z" stroke="#4B4065" stroke-width="1.63713" stroke-miterlimit="10"/>
<path d="M121.038 350.965H392.065C392.065 358.66 385.762 364.963 378.068 364.963H135.036C127.341 364.963 121.038 358.66 121.038 350.965Z" fill="white" stroke="#B9C6E4" stroke-width="0.818565" stroke-miterlimit="10"/>
<path d="M157.301 224.988H359.65C366.117 224.988 371.356 230.227 371.356 236.693V364.881H145.595V236.693C145.595 230.227 150.834 224.988 157.301 224.988Z" fill="#AEB0F9"/>
<path d="M258.148 307.253C265.472 307.253 271.409 301.316 271.409 293.993C271.409 286.669 265.472 280.732 258.148 280.732C250.824 280.732 244.887 286.669 244.887 293.993C244.887 301.316 250.824 307.253 258.148 307.253Z" fill="white"/>
<path d="M437.184 171.468H501.85C511.346 171.468 519.122 179.163 519.122 188.74V243.584C519.122 253.079 511.428 260.856 501.85 260.856H437.184C427.688 260.856 419.912 253.161 419.912 243.584V188.74C419.912 179.163 427.606 171.468 437.184 171.468Z" fill="#DDEEFF"/>
<path d="M458.287 241.769L474.167 260.841L459.924 261.169L458.287 241.769Z" fill="#4B4065"/>
<path d="M459.024 281.796C459.843 282.205 460.907 281.878 461.316 281.059C461.48 280.814 461.562 280.486 461.48 280.159L459.925 261.25L458.288 241.85C458.206 240.949 457.387 240.213 456.487 240.376C456.241 240.376 456.078 240.458 455.832 240.54L438.806 250.035L422.189 259.285C421.37 259.695 421.043 260.759 421.534 261.577C421.698 261.905 421.943 262.068 422.189 262.232L430.538 266.734L416.05 293.665L436.105 304.388L450.593 277.294L459.024 281.796Z" fill="white" stroke="#F7C689" stroke-width="1.63713" stroke-miterlimit="10"/>
<path d="M76.2626 71.7526C75.6078 57.0185 88.9504 43.1847 103.766 43.2666C118.582 43.3484 131.68 57.4277 130.779 72.1619C130.288 80.1839 124.394 88.8607 116.454 88.3695C108.596 87.8784 103.93 78.956 103.848 71.0978C103.685 52.6801 123.166 36.7999 141.175 40.6472" stroke="#4B4065" stroke-width="1.63713" stroke-miterlimit="10"/>
<path d="M493.185 121.853H441.206L416.731 96.8048V45.3989H493.185V121.853Z" fill="white" stroke="#F27932" stroke-width="0.695126" stroke-miterlimit="10"/>
<path d="M416.731 45.3989L403.798 87.8825H416.731" fill="#FFA409"/>
<path d="M459.542 68.8912L461.342 73.7207C461.752 74.8667 462.898 75.7671 464.207 75.7671L469.446 76.0127C471.165 76.0946 472.557 77.6498 472.475 79.3688C472.393 80.2693 471.984 81.0878 471.329 81.7427L467.236 85.0169C466.254 85.7536 465.845 87.0633 466.09 88.373L467.482 93.3663C467.973 95.0034 466.909 96.8043 465.272 97.2954C464.371 97.541 463.471 97.3773 462.734 96.8861L458.396 94.0211C457.331 93.3663 455.94 93.3663 454.958 94.0211L450.619 96.8861C449.146 97.8684 447.181 97.4591 446.199 95.9857C445.708 95.249 445.544 94.2667 445.79 93.4482L447.181 88.4549C447.509 87.2271 447.099 85.9174 446.035 85.0988L441.942 81.8245C440.551 80.6785 440.305 78.714 441.451 77.3224C442.024 76.6676 442.925 76.1764 443.825 76.1764L449.064 75.9309C450.292 75.849 451.438 75.0304 451.929 73.8844L453.73 69.0549C454.385 67.4178 456.267 66.5992 457.904 67.3359C458.559 67.4996 459.296 68.0726 459.542 68.8912Z" fill="#FFA409"/>
<path d="M357.604 174.925C336.812 166.903 336.649 124.911 366.526 138.335C375.94 140.381 388.546 150.777 372.338 154.133C350.728 157.326 332.883 124.338 356.785 114.351" stroke="#FFA409" stroke-width="0.818565" stroke-miterlimit="10" stroke-dasharray="3.27 3.27"/>
<path d="M485.199 215.851H477.566C477.113 215.85 476.671 215.994 476.305 216.261C475.938 216.528 475.665 216.904 475.526 217.336C475.162 218.475 474.444 219.468 473.478 220.172C472.512 220.876 471.346 221.255 470.151 221.253C468.955 221.255 467.789 220.876 466.823 220.172C465.856 219.468 465.139 218.475 464.775 217.336C464.635 216.904 464.363 216.528 463.996 216.261C463.629 215.994 463.187 215.85 462.734 215.851H455.101C454.819 215.851 454.541 215.906 454.28 216.014C454.02 216.122 453.784 216.279 453.584 216.479C453.385 216.678 453.227 216.914 453.119 217.175C453.012 217.435 452.956 217.714 452.956 217.995V230.228C452.957 230.796 453.183 231.342 453.585 231.744C453.987 232.146 454.532 232.371 455.101 232.372H485.199C485.481 232.372 485.76 232.316 486.02 232.209C486.28 232.101 486.516 231.943 486.716 231.744C486.915 231.545 487.073 231.308 487.181 231.048C487.288 230.788 487.344 230.509 487.344 230.228V217.995C487.344 216.81 486.385 215.851 485.199 215.851Z" fill="#3D50FF"/>
<path d="M469.7 216.992C469.808 217.142 469.984 217.233 470.169 217.233H470.17C470.357 217.233 470.531 217.142 470.64 216.989L476.571 208.647C476.632 208.56 476.668 208.459 476.676 208.353C476.683 208.248 476.662 208.142 476.613 208.048C476.565 207.954 476.491 207.875 476.401 207.819C476.31 207.764 476.206 207.735 476.1 207.736H473.31V200.241C473.31 199.921 473.051 199.663 472.733 199.663H467.568C467.249 199.663 466.991 199.921 466.991 200.241V207.736H464.199C464.093 207.736 463.989 207.765 463.899 207.82C463.808 207.875 463.735 207.954 463.687 208.048C463.638 208.143 463.617 208.248 463.624 208.354C463.632 208.459 463.668 208.561 463.73 208.647L469.7 216.992Z" fill="#3D50FF"/>
<path d="M119.433 128.812H0V279.526H119.433V128.812Z" fill="#8E33FF"/>
<circle cx="24.1711" cy="153.931" r="13.7443" fill="white" fill-opacity="0.6"/>
<rect x="44.5505" y="158.197" width="47.3941" height="3.79153" fill="#D2ADFF"/>
<rect x="10.4268" y="179.998" width="39.8111" height="3.79153" fill="#D2ADFF"/>
<rect x="10.4268" y="188.529" width="61.6124" height="1.89577" fill="#D2ADFF" fill-opacity="0.5"/>
<rect x="10.4268" y="193.269" width="65.4039" height="1.89577" fill="#D2ADFF" fill-opacity="0.5"/>
<rect x="10.4268" y="198.008" width="54.9772" height="1.89577" fill="#D2ADFF" fill-opacity="0.5"/>
<rect x="89.1011" y="191.373" width="21.8013" height="1.89577" fill="#D2ADFF" fill-opacity="0.5"/>
<rect x="89.101" y="196.112" width="22.7492" height="1.89577" fill="#D2ADFF" fill-opacity="0.5"/>
<rect x="89.101" y="200.852" width="18.9577" height="1.89577" fill="#D2ADFF" fill-opacity="0.5"/>
<rect x="89.1011" y="220.757" width="21.8013" height="1.89577" fill="#D2ADFF" fill-opacity="0.5"/>
<rect x="89.101" y="225.497" width="22.7492" height="1.89577" fill="#D2ADFF" fill-opacity="0.5"/>
<rect x="89.101" y="230.236" width="18.9577" height="1.89577" fill="#D2ADFF" fill-opacity="0.5"/>
<rect x="10.4268" y="212.226" width="39.8111" height="3.79153" fill="#D2ADFF"/>
<rect x="10.4268" y="220.757" width="61.6124" height="1.89577" fill="#D2ADFF" fill-opacity="0.5"/>
<rect x="10.4268" y="225.497" width="65.4039" height="1.89577" fill="#D2ADFF" fill-opacity="0.5"/>
<rect x="10.4268" y="230.236" width="54.9772" height="1.89577" fill="#D2ADFF" fill-opacity="0.5"/>
<rect x="10.4268" y="243.506" width="39.8111" height="3.79153" fill="#D2ADFF"/>
<rect x="10.4268" y="252.037" width="61.6124" height="1.89577" fill="#D2ADFF" fill-opacity="0.5"/>
<rect x="10.4268" y="256.777" width="65.4039" height="1.89577" fill="#D2ADFF" fill-opacity="0.5"/>
<rect x="10.4268" y="261.516" width="54.9772" height="1.89577" fill="#D2ADFF" fill-opacity="0.5"/>
<rect x="44.5505" y="145.875" width="61.6124" height="8.53094" fill="#D2ADFF"/>
</svg>
